<?xml version="1.0" encoding="UTF-8" standalone="no"?>
<svg
   version="1.1"
   width="160"
   height="160"
   id="svg41"
   sodipodi:docname="attr_interp_thumbnail.svg"
   inkscape:version="1.2 (dc2aedaf03, 2022-05-15)"
   viewBox="0 0 313.72549 313.72549"
   xmlns:inkscape="http://www.inkscape.org/namespaces/inkscape"
   xmlns:sodipodi="http://sodipodi.sourceforge.net/DTD/sodipodi-0.dtd"
   xmlns="http://www.w3.org/2000/svg"
   xmlns:svg="http://www.w3.org/2000/svg">
  <sodipodi:namedview
     id="namedview43"
     pagecolor="#ffffff"
     bordercolor="#666666"
     borderopacity="1.0"
     inkscape:showpageshadow="2"
     inkscape:pageopacity="0.0"
     inkscape:pagecheckerboard="0"
     inkscape:deskcolor="#d1d1d1"
     showgrid="false"
     inkscape:zoom="1.0864865"
     inkscape:cx="196.50497"
     inkscape:cy="215.37313"
     inkscape:window-width="2560"
     inkscape:window-height="1009"
     inkscape:window-x="-8"
     inkscape:window-y="-8"
     inkscape:window-maximized="1"
     inkscape:current-layer="svg41" />
  <defs
     id="defs5">
    <clipPath
       id="ZmcpJPCtoBFa">
      <path
         fill="none"
         stroke="none"
         d="M 0,0 H 820 V 740 H 0 Z"
         id="path2" />
    </clipPath>
  </defs>
  <g
     clip-path="url(#ZmcpJPCtoBFa)"
     id="g39"
     transform="matrix(0.80950637,0,0,0.80950815,-83.827104,-65.179367)"
     style="stroke-width:1.23532">
    <g
       id="g37"
       style="stroke-width:1.23532">
      <path
         fill="none"
         stroke="#0099cc"
         paint-order="fill stroke markers"
         d="M 337.87866,86.998671 112.10015,463.29619"
         stroke-opacity="0.698039"
         stroke-linecap="round"
         stroke-linejoin="round"
         stroke-miterlimit="10"
         stroke-width="6.1766"
         id="path9" />
      <path
         fill="none"
         stroke="#0099cc"
         paint-order="fill stroke markers"
         d="M 112.10015,463.29619 487,402"
         stroke-opacity="0.698039"
         stroke-linecap="round"
         stroke-linejoin="round"
         stroke-miterlimit="10"
         stroke-width="6.1766"
         id="path11" />
      <path
         fill="none"
         stroke="#0099cc"
         paint-order="fill stroke markers"
         d="M 487,402 337.87866,86.998671"
         stroke-opacity="0.698039"
         stroke-linecap="round"
         stroke-linejoin="round"
         stroke-miterlimit="10"
         stroke-width="6.1766"
         id="path13" />
      <path
         fill="none"
         stroke="#ff9900"
         paint-order="fill stroke markers"
         d="M 363,348 337.87866,86.998671"
         stroke-opacity="0.698039"
         stroke-linejoin="round"
         stroke-miterlimit="10"
         stroke-width="4.94128"
         stroke-dasharray="8, 4"
         id="path15" />
      <path
         fill="none"
         stroke="#ff9900"
         paint-order="fill stroke markers"
         d="M 363,348 112.10015,463.29619"
         stroke-opacity="0.698039"
         stroke-linejoin="round"
         stroke-miterlimit="10"
         stroke-width="4.94128"
         stroke-dasharray="8, 4"
         id="path17" />
      <path
         fill="none"
         stroke="#ff9900"
         paint-order="fill stroke markers"
         d="m 363,348 124,54"
         stroke-opacity="0.698039"
         stroke-linejoin="round"
         stroke-miterlimit="10"
         stroke-width="4.94128"
         stroke-dasharray="8, 4"
         id="path19" />
      <path
         fill="#0099cc"
         stroke="none"
         paint-order="stroke fill markers"
         d="m 342.87866,86.998671 c 0,2.761424 -2.23858,5 -5,5 -2.76142,0 -5,-2.238576 -5,-5 0,-2.761424 2.23858,-5 5,-5 2.76142,0 5,2.238576 5,5 z"
         fill-opacity="1"
         id="path21"
         style="stroke-width:1.52601" />
      <path
         fill="none"
         stroke="#000000"
         paint-order="fill stroke markers"
         d="m 342.87866,86.998671 c 0,2.761424 -2.23858,5 -5,5 -2.76142,0 -5,-2.238576 -5,-5 0,-2.761424 2.23858,-5 5,-5 2.76142,0 5,2.238576 5,5 z"
         stroke-opacity="1"
         stroke-linecap="round"
         stroke-linejoin="round"
         stroke-miterlimit="10"
         id="path23"
         style="stroke-width:1.52601" />
      <path
         fill="#0099cc"
         stroke="none"
         paint-order="stroke fill markers"
         d="m 492,402 c 0,2.76142 -2.23858,5 -5,5 -2.76142,0 -5,-2.23858 -5,-5 0,-2.76142 2.23858,-5 5,-5 2.76142,0 5,2.23858 5,5 z"
         fill-opacity="1"
         id="path25"
         style="stroke-width:1.52601" />
      <path
         fill="none"
         stroke="#000000"
         paint-order="fill stroke markers"
         d="m 492,402 c 0,2.76142 -2.23858,5 -5,5 -2.76142,0 -5,-2.23858 -5,-5 0,-2.76142 2.23858,-5 5,-5 2.76142,0 5,2.23858 5,5 z"
         stroke-opacity="1"
         stroke-linecap="round"
         stroke-linejoin="round"
         stroke-miterlimit="10"
         id="path27"
         style="stroke-width:1.52601" />
      <path
         fill="#0099cc"
         stroke="none"
         paint-order="stroke fill markers"
         d="m 117.10015,463.29619 c 0,2.76143 -2.23858,5 -5,5 -2.76143,0 -5,-2.23857 -5,-5 0,-2.76142 2.23857,-5 5,-5 2.76142,0 5,2.23858 5,5 z"
         fill-opacity="1"
         id="path29"
         style="stroke-width:1.52601" />
      <path
         fill="none"
         stroke="#000000"
         paint-order="fill stroke markers"
         d="m 117.10015,463.29619 c 0,2.76143 -2.23858,5 -5,5 -2.76143,0 -5,-2.23857 -5,-5 0,-2.76142 2.23857,-5 5,-5 2.76142,0 5,2.23858 5,5 z"
         stroke-opacity="1"
         stroke-linecap="round"
         stroke-linejoin="round"
         stroke-miterlimit="10"
         id="path31"
         style="stroke-width:1.52601" />
      <path
         fill="#ff9900"
         stroke="none"
         paint-order="stroke fill markers"
         d="m 368,348 c 0,2.76142 -2.23858,5 -5,5 -2.76142,0 -5,-2.23858 -5,-5 0,-2.76142 2.23858,-5 5,-5 2.76142,0 5,2.23858 5,5 z"
         fill-opacity="1"
         id="path33"
         style="stroke-width:1.52601" />
      <path
         fill="none"
         stroke="#000000"
         paint-order="fill stroke markers"
         d="m 368,348 c 0,2.76142 -2.23858,5 -5,5 -2.76142,0 -5,-2.23858 -5,-5 0,-2.76142 2.23858,-5 5,-5 2.76142,0 5,2.23858 5,5 z"
         stroke-opacity="1"
         stroke-linecap="round"
         stroke-linejoin="round"
         stroke-miterlimit="10"
         id="path35"
         style="stroke-width:1.52601" />
    </g>
  </g>
</svg>
