<?xml version="1.0" encoding="UTF-8" standalone="no"?>
<svg
   version="1.1"
   width="538"
   height="264"
   id="svg93"
   sodipodi:docname="attr_interp_01.svg"
   inkscape:version="1.2 (dc2aedaf03, 2022-05-15)"
   viewBox="-5 -3 538 264"
   xmlns:inkscape="http://www.inkscape.org/namespaces/inkscape"
   xmlns:sodipodi="http://sodipodi.sourceforge.net/DTD/sodipodi-0.dtd"
   xmlns="http://www.w3.org/2000/svg"
   xmlns:svg="http://www.w3.org/2000/svg">
  <sodipodi:namedview
     id="namedview95"
     pagecolor="#ffffff"
     bordercolor="#666666"
     borderopacity="1.0"
     inkscape:showpageshadow="2"
     inkscape:pageopacity="0.0"
     inkscape:pagecheckerboard="0"
     inkscape:deskcolor="#d1d1d1"
     showgrid="false"
     inkscape:zoom="0.86715481"
     inkscape:cx="173.55609"
     inkscape:cy="220.26055"
     inkscape:window-width="1920"
     inkscape:window-height="1009"
     inkscape:window-x="-8"
     inkscape:window-y="-8"
     inkscape:window-maximized="1"
     inkscape:current-layer="svg93" />
  <defs
     id="defs5">
    <clipPath
       id="gAzwQRkioRsH">
      <path
         fill="none"
         stroke="none"
         d="M 0,0 H 979 V 956 H 0 Z"
         id="path2" />
    </clipPath>
  </defs>
  <g
     clip-path="url(#gAzwQRkioRsH)"
     id="g91"
     transform="translate(-238.31,-257.804)">
    <g
       id="g89">
      <path
         fill="none"
         stroke="#0099cc"
         paint-order="fill stroke markers"
         d="M 545.26931,280.20196 287.02032,469.55457"
         stroke-opacity="0.698039"
         stroke-linecap="round"
         stroke-linejoin="round"
         stroke-miterlimit="10"
         stroke-width="5"
         id="path9" />
      <path
         fill="none"
         stroke="#0099cc"
         paint-order="fill stroke markers"
         d="m 287.02032,469.55457 426.54807,40.44852"
         stroke-opacity="0.698039"
         stroke-linecap="round"
         stroke-linejoin="round"
         stroke-miterlimit="10"
         stroke-width="5"
         id="path11" />
      <path
         fill="none"
         stroke="#0099cc"
         paint-order="fill stroke markers"
         d="M 713.56839,510.00309 545.26931,280.20196"
         stroke-opacity="0.698039"
         stroke-linecap="round"
         stroke-linejoin="round"
         stroke-miterlimit="10"
         stroke-width="5"
         id="path13" />
      <path
         fill="none"
         stroke="#ff9900"
         paint-order="fill stroke markers"
         d="M 570.15999,456.68458 545.26931,280.20196"
         stroke-opacity="0.698039"
         stroke-linejoin="round"
         stroke-miterlimit="10"
         stroke-width="4"
         stroke-dasharray="8, 4"
         id="path15" />
      <path
         fill="none"
         stroke="#ff9900"
         paint-order="fill stroke markers"
         d="M 570.15999,456.68458 287.02032,469.55457"
         stroke-opacity="0.698039"
         stroke-linejoin="round"
         stroke-miterlimit="10"
         stroke-width="4"
         stroke-dasharray="8, 4"
         id="path17" />
      <path
         fill="none"
         stroke="#ff9900"
         paint-order="fill stroke markers"
         d="m 570.15999,456.68458 143.4084,53.31851"
         stroke-opacity="0.698039"
         stroke-linejoin="round"
         stroke-miterlimit="10"
         stroke-width="4"
         stroke-dasharray="8, 4"
         id="path19" />
      <path
         fill="#0099cc"
         stroke="none"
         paint-order="stroke fill markers"
         d="m 550.26931,280.20196 c 0,2.76142 -2.23858,5 -5,5 -2.76143,0 -5,-2.23858 -5,-5 0,-2.76142 2.23857,-5 5,-5 2.76142,0 5,2.23858 5,5 z"
         fill-opacity="1"
         id="path21" />
      <path
         fill="none"
         stroke="#000000"
         paint-order="fill stroke markers"
         d="m 550.26931,280.20196 c 0,2.76142 -2.23858,5 -5,5 -2.76143,0 -5,-2.23858 -5,-5 0,-2.76142 2.23857,-5 5,-5 2.76142,0 5,2.23858 5,5 z"
         stroke-opacity="1"
         stroke-linecap="round"
         stroke-linejoin="round"
         stroke-miterlimit="10"
         id="path23" />
      <path
         fill="#0099cc"
         stroke="none"
         paint-order="stroke fill markers"
         d="m 718.56839,510.00309 c 0,2.76142 -2.23858,5 -5,5 -2.76143,0 -5,-2.23858 -5,-5 0,-2.76142 2.23857,-5 5,-5 2.76142,0 5,2.23858 5,5 z"
         fill-opacity="1"
         id="path25" />
      <path
         fill="none"
         stroke="#000000"
         paint-order="fill stroke markers"
         d="m 718.56839,510.00309 c 0,2.76142 -2.23858,5 -5,5 -2.76143,0 -5,-2.23858 -5,-5 0,-2.76142 2.23857,-5 5,-5 2.76142,0 5,2.23858 5,5 z"
         stroke-opacity="1"
         stroke-linecap="round"
         stroke-linejoin="round"
         stroke-miterlimit="10"
         id="path27" />
      <path
         fill="#0099cc"
         stroke="none"
         paint-order="stroke fill markers"
         d="m 292.02032,469.55457 c 0,2.76142 -2.23857,5 -5,5 -2.76142,0 -5,-2.23858 -5,-5 0,-2.76143 2.23858,-5 5,-5 2.76143,0 5,2.23857 5,5 z"
         fill-opacity="1"
         id="path29" />
      <path
         fill="none"
         stroke="#000000"
         paint-order="fill stroke markers"
         d="m 292.02032,469.55457 c 0,2.76142 -2.23857,5 -5,5 -2.76142,0 -5,-2.23858 -5,-5 0,-2.76143 2.23858,-5 5,-5 2.76143,0 5,2.23857 5,5 z"
         stroke-opacity="1"
         stroke-linecap="round"
         stroke-linejoin="round"
         stroke-miterlimit="10"
         id="path31" />
      <path
         fill="#ff9900"
         stroke="none"
         paint-order="stroke fill markers"
         d="m 575.15999,456.68458 c 0,2.76143 -2.23858,5 -5,5 -2.76143,0 -5,-2.23857 -5,-5 0,-2.76142 2.23857,-5 5,-5 2.76142,0 5,2.23858 5,5 z"
         fill-opacity="1"
         id="path33" />
      <path
         fill="none"
         stroke="#000000"
         paint-order="fill stroke markers"
         d="m 575.15999,456.68458 c 0,2.76143 -2.23858,5 -5,5 -2.76143,0 -5,-2.23857 -5,-5 0,-2.76142 2.23857,-5 5,-5 2.76142,0 5,2.23858 5,5 z"
         stroke-opacity="1"
         stroke-linecap="round"
         stroke-linejoin="round"
         stroke-miterlimit="10"
         id="path35" />
      <g
         transform="scale(35)"
         id="g49">
        <g
           transform="translate(15.971429,8.0951206)"
           id="g39">
          <path
             fill="#0099cc"
             stroke="none"
             paint-order="stroke fill markers"
             d="m 0.759,-0.599 -0.407,0.59 Q 0.341,0.007 0.3335,0.012 0.326,0.017 0.306,0.017 0.294,0.017 0.289,0.016 0.284,0.015 0.2785,0.0085 0.273,0.002 0.271,-0.011 L 0.157,-0.619 Q 0.155,-0.632 0.1525,-0.6345 0.15,-0.637 0.142,-0.638 0.128,-0.639 0.103,-0.639 0.09,-0.639 0.0835,-0.6395 0.077,-0.64 0.0715,-0.6445 0.066,-0.649 0.066,-0.657 q 0,-0.013 0.006,-0.02 0.006,-0.007 0.0105,-0.008 0.0045,-0.001 0.0115,-0.001 0.01,0 0.0325,0.001 0.0225,0.001 0.0335,0.001 0.012,0 0.035,5e-4 0.023,5e-4 0.034,5e-4 0.012,0 0.0365,-5e-4 0.0245,-5e-4 0.0365,-5e-4 0.012,0 0.038,-0.001 0.026,-0.001 0.038,-0.001 0.022,0 0.022,0.018 0,0.02 -0.009,0.0245 -0.009,0.0045 -0.029,0.0045 -0.061,0 -0.061,0.008 0,0.008 0.002,0.014 l 0.088,0.468 0.33,-0.48 q -0.022,-0.01 -0.056,-0.01 -0.026,0 -0.026,-0.018 0,-0.029 0.027,-0.029 0.017,0 0.0545,0.0015 0.0375,0.0015 0.0555,0.0015 0.015,0 0.046,-0.0015 0.031,-0.0015 0.045,-0.0015 0.009,0 0.0135,0.006 0.0045,0.006 0.0045,0.012 0,0.029 -0.03,0.029 -0.033,0 -0.0525,0.0065 Q 0.783,-0.626 0.776,-0.6195 0.769,-0.613 0.759,-0.599 Z"
             id="path37" />
        </g>
        <g
           transform="matrix(0.7,0,0,0.7,16.905429,7.6822286)"
           id="g43">
          <path
             fill="#0099cc"
             stroke="none"
             paint-order="stroke fill markers"
             d="m 0.28,-0.376 q 0.071,-0.076 0.165,-0.076 0.064,0 0.1065,0.0265 0.0425,0.0265 0.0425,0.0895 0,0.055 -0.062,0.214 -0.02,0.05 -0.02,0.073 0,0.01 0.003,0.015 0.003,0.005 0.006,0.0055 0.003,5e-4 0.008,5e-4 0.009,0 0.019,-0.004 0.01,-0.004 0.0255,-0.0145 Q 0.589,-0.057 0.6045,-0.0835 0.62,-0.11 0.632,-0.149 q 0.004,-0.013 0.023,-0.013 0.024,0 0.024,0.014 0,0.01 -0.01,0.0335 -0.01,0.0235 -0.028,0.052 Q 0.623,-0.034 0.5915,-0.013 0.56,0.008 0.523,0.008 0.478,0.008 0.444,-0.0165 0.41,-0.041 0.41,-0.082 q 0,-0.017 0.014,-0.051 0.063,-0.166 0.063,-0.224 0,-0.059 -0.05,-0.059 -0.053,0 -0.103,0.039 Q 0.312,-0.359 0.2925,-0.3325 0.273,-0.306 0.272,-0.299 0.271,-0.297 0.257,-0.241 0.243,-0.185 0.241,-0.18 0.227,-0.12 0.213,-0.068 0.209,-0.053 0.2055,-0.043 0.202,-0.033 0.1945,-0.0195 0.187,-0.006 0.1735,0.001 0.16,0.008 0.142,0.008 0.12,0.008 0.1075,-0.0055 0.095,-0.019 0.095,-0.036 q 0,-0.003 0.008,-0.04 l 0.036,-0.14 q 0.005,-0.022 0.022,-0.09 0.014,-0.056 0.014,-0.073 0,-0.037 -0.023,-0.037 -0.042,0 -0.068,0.1 -0.007,0.028 -0.008,0.029 -0.005,0.005 -0.02,0.005 -0.024,0 -0.024,-0.014 0,-0.008 0.011,-0.0405 0.011,-0.0325 0.027,-0.0585 0.035,-0.057 0.087,-0.057 0.043,0 0.078,0.02 0.035,0.02 0.045,0.056 z"
             id="path41" />
        </g>
        <g
           transform="matrix(0.7,0,0,0.7,16.649429,8.3423376)"
           id="g47">
          <path
             fill="#0099cc"
             stroke="none"
             paint-order="stroke fill markers"
             d="m 0.5285,-0.369 q 0,0 2.5e-4,0.01 2.5e-4,0.01 2.5e-4,0.04 0,0.03 -5e-4,0.0505 Q 0.528,-0.248 0.523,-0.2105 0.518,-0.173 0.5095,-0.1465 0.501,-0.12 0.483,-0.088 0.465,-0.056 0.44,-0.036 0.415,-0.016 0.3755,-0.0025 0.336,0.011 0.287,0.011 0.237,0.011 0.1975,-0.003 0.158,-0.017 0.1335,-0.0365 0.109,-0.056 0.091,-0.0885 0.073,-0.121 0.0645,-0.147 0.056,-0.173 0.051,-0.211 0.046,-0.249 0.0455,-0.269 q -5e-4,-0.02 -5e-4,-0.05 0,-0.03 5e-4,-0.05 5e-4,-0.02 0.0055,-0.0585 Q 0.056,-0.466 0.0645,-0.493 0.073,-0.52 0.091,-0.553 0.109,-0.586 0.1335,-0.6065 0.158,-0.627 0.1975,-0.641 0.237,-0.655 0.287,-0.655 q 0.05,0 0.0895,0.0145 0.0395,0.0145 0.064,0.0345 0.0245,0.02 0.0425,0.0535 0.018,0.0335 0.0265,0.06 0.0085,0.0265 0.0135,0.065 0.005,0.0385 0.0055,0.0585 M 0.287,-0.025 q 0.02,0 0.039,-0.0065 Q 0.345,-0.038 0.3665,-0.0635 0.388,-0.089 0.394,-0.132 0.401,-0.184 0.401,-0.331 0.401,-0.519 0.384,-0.556 0.371,-0.587 0.344,-0.603 0.317,-0.619 0.287,-0.619 0.269,-0.619 0.2505,-0.614 0.232,-0.609 0.209,-0.5845 0.186,-0.56 0.181,-0.52 q -0.008,0.052 -0.008,0.189 0,0.159 0.009,0.211 0.009,0.049 0.0405,0.072 0.0315,0.023 0.0645,0.023 z"
             id="path45" />
        </g>
      </g>
      <g
         transform="scale(35)"
         id="g63">
        <g
           transform="translate(6.7428571,13.637978)"
           id="g53">
          <path
             fill="#0099cc"
             stroke="none"
             paint-order="stroke fill markers"
             d="m 0.759,-0.599 -0.407,0.59 Q 0.341,0.007 0.3335,0.012 0.326,0.017 0.306,0.017 0.294,0.017 0.289,0.016 0.284,0.015 0.2785,0.0085 0.273,0.002 0.271,-0.011 L 0.157,-0.619 Q 0.155,-0.632 0.1525,-0.6345 0.15,-0.637 0.142,-0.638 0.128,-0.639 0.103,-0.639 0.09,-0.639 0.0835,-0.6395 0.077,-0.64 0.0715,-0.6445 0.066,-0.649 0.066,-0.657 q 0,-0.013 0.006,-0.02 0.006,-0.007 0.0105,-0.008 0.0045,-0.001 0.0115,-0.001 0.01,0 0.0325,0.001 0.0225,0.001 0.0335,0.001 0.012,0 0.035,5e-4 0.023,5e-4 0.034,5e-4 0.012,0 0.0365,-5e-4 0.0245,-5e-4 0.0365,-5e-4 0.012,0 0.038,-0.001 0.026,-0.001 0.038,-0.001 0.022,0 0.022,0.018 0,0.02 -0.009,0.0245 -0.009,0.0045 -0.029,0.0045 -0.061,0 -0.061,0.008 0,0.008 0.002,0.014 l 0.088,0.468 0.33,-0.48 q -0.022,-0.01 -0.056,-0.01 -0.026,0 -0.026,-0.018 0,-0.029 0.027,-0.029 0.017,0 0.0545,0.0015 0.0375,0.0015 0.0555,0.0015 0.015,0 0.046,-0.0015 0.031,-0.0015 0.045,-0.0015 0.009,0 0.0135,0.006 0.0045,0.006 0.0045,0.012 0,0.029 -0.03,0.029 -0.033,0 -0.0525,0.0065 Q 0.783,-0.626 0.776,-0.6195 0.769,-0.613 0.759,-0.599 Z"
             id="path51" />
        </g>
        <g
           transform="matrix(0.7,0,0,0.7,7.6768571,13.225086)"
           id="g57">
          <path
             fill="#0099cc"
             stroke="none"
             paint-order="stroke fill markers"
             d="m 0.28,-0.376 q 0.071,-0.076 0.165,-0.076 0.064,0 0.1065,0.0265 0.0425,0.0265 0.0425,0.0895 0,0.055 -0.062,0.214 -0.02,0.05 -0.02,0.073 0,0.01 0.003,0.015 0.003,0.005 0.006,0.0055 0.003,5e-4 0.008,5e-4 0.009,0 0.019,-0.004 0.01,-0.004 0.0255,-0.0145 Q 0.589,-0.057 0.6045,-0.0835 0.62,-0.11 0.632,-0.149 q 0.004,-0.013 0.023,-0.013 0.024,0 0.024,0.014 0,0.01 -0.01,0.0335 -0.01,0.0235 -0.028,0.052 Q 0.623,-0.034 0.5915,-0.013 0.56,0.008 0.523,0.008 0.478,0.008 0.444,-0.0165 0.41,-0.041 0.41,-0.082 q 0,-0.017 0.014,-0.051 0.063,-0.166 0.063,-0.224 0,-0.059 -0.05,-0.059 -0.053,0 -0.103,0.039 Q 0.312,-0.359 0.2925,-0.3325 0.273,-0.306 0.272,-0.299 0.271,-0.297 0.257,-0.241 0.243,-0.185 0.241,-0.18 0.227,-0.12 0.213,-0.068 0.209,-0.053 0.2055,-0.043 0.202,-0.033 0.1945,-0.0195 0.187,-0.006 0.1735,0.001 0.16,0.008 0.142,0.008 0.12,0.008 0.1075,-0.0055 0.095,-0.019 0.095,-0.036 q 0,-0.003 0.008,-0.04 l 0.036,-0.14 q 0.005,-0.022 0.022,-0.09 0.014,-0.056 0.014,-0.073 0,-0.037 -0.023,-0.037 -0.042,0 -0.068,0.1 -0.007,0.028 -0.008,0.029 -0.005,0.005 -0.02,0.005 -0.024,0 -0.024,-0.014 0,-0.008 0.011,-0.0405 0.011,-0.0325 0.027,-0.0585 0.035,-0.057 0.087,-0.057 0.043,0 0.078,0.02 0.035,0.02 0.045,0.056 z"
             id="path55" />
        </g>
        <g
           transform="matrix(0.7,0,0,0.7,7.4208571,13.885195)"
           id="g61">
          <path
             fill="#0099cc"
             stroke="none"
             paint-order="stroke fill markers"
             d="m 0.354,-0.623 v 0.576 h 0.14 V 0 Q 0.45,-0.003 0.295,-0.003 0.14,-0.003 0.096,0 v -0.047 h 0.139 v -0.517 q -0.062,0.02 -0.13,0.02 h -0.02 v -0.047 h 0.02 q 0.124,0 0.201,-0.057 0.009,-0.007 0.022,-0.007 0.018,0 0.022,0.0065 0.004,0.0065 0.004,0.0255 z"
             id="path59" />
        </g>
      </g>
      <g
         transform="scale(35)"
         id="g77">
        <g
           transform="translate(20.457143,14.409406)"
           id="g67">
          <path
             fill="#0099cc"
             stroke="none"
             paint-order="stroke fill markers"
             d="m 0.759,-0.599 -0.407,0.59 Q 0.341,0.007 0.3335,0.012 0.326,0.017 0.306,0.017 0.294,0.017 0.289,0.016 0.284,0.015 0.2785,0.0085 0.273,0.002 0.271,-0.011 L 0.157,-0.619 Q 0.155,-0.632 0.1525,-0.6345 0.15,-0.637 0.142,-0.638 0.128,-0.639 0.103,-0.639 0.09,-0.639 0.0835,-0.6395 0.077,-0.64 0.0715,-0.6445 0.066,-0.649 0.066,-0.657 q 0,-0.013 0.006,-0.02 0.006,-0.007 0.0105,-0.008 0.0045,-0.001 0.0115,-0.001 0.01,0 0.0325,0.001 0.0225,0.001 0.0335,0.001 0.012,0 0.035,5e-4 0.023,5e-4 0.034,5e-4 0.012,0 0.0365,-5e-4 0.0245,-5e-4 0.0365,-5e-4 0.012,0 0.038,-0.001 0.026,-0.001 0.038,-0.001 0.022,0 0.022,0.018 0,0.02 -0.009,0.0245 -0.009,0.0045 -0.029,0.0045 -0.061,0 -0.061,0.008 0,0.008 0.002,0.014 l 0.088,0.468 0.33,-0.48 q -0.022,-0.01 -0.056,-0.01 -0.026,0 -0.026,-0.018 0,-0.029 0.027,-0.029 0.017,0 0.0545,0.0015 0.0375,0.0015 0.0555,0.0015 0.015,0 0.046,-0.0015 0.031,-0.0015 0.045,-0.0015 0.009,0 0.0135,0.006 0.0045,0.006 0.0045,0.012 0,0.029 -0.03,0.029 -0.033,0 -0.0525,0.0065 Q 0.783,-0.626 0.776,-0.6195 0.769,-0.613 0.759,-0.599 Z"
             id="path65" />
        </g>
        <g
           transform="matrix(0.7,0,0,0.7,21.391143,13.996514)"
           id="g71">
          <path
             fill="#0099cc"
             stroke="none"
             paint-order="stroke fill markers"
             d="m 0.28,-0.376 q 0.071,-0.076 0.165,-0.076 0.064,0 0.1065,0.0265 0.0425,0.0265 0.0425,0.0895 0,0.055 -0.062,0.214 -0.02,0.05 -0.02,0.073 0,0.01 0.003,0.015 0.003,0.005 0.006,0.0055 0.003,5e-4 0.008,5e-4 0.009,0 0.019,-0.004 0.01,-0.004 0.0255,-0.0145 Q 0.589,-0.057 0.6045,-0.0835 0.62,-0.11 0.632,-0.149 q 0.004,-0.013 0.023,-0.013 0.024,0 0.024,0.014 0,0.01 -0.01,0.0335 -0.01,0.0235 -0.028,0.052 Q 0.623,-0.034 0.5915,-0.013 0.56,0.008 0.523,0.008 0.478,0.008 0.444,-0.0165 0.41,-0.041 0.41,-0.082 q 0,-0.017 0.014,-0.051 0.063,-0.166 0.063,-0.224 0,-0.059 -0.05,-0.059 -0.053,0 -0.103,0.039 Q 0.312,-0.359 0.2925,-0.3325 0.273,-0.306 0.272,-0.299 0.271,-0.297 0.257,-0.241 0.243,-0.185 0.241,-0.18 0.227,-0.12 0.213,-0.068 0.209,-0.053 0.2055,-0.043 0.202,-0.033 0.1945,-0.0195 0.187,-0.006 0.1735,0.001 0.16,0.008 0.142,0.008 0.12,0.008 0.1075,-0.0055 0.095,-0.019 0.095,-0.036 q 0,-0.003 0.008,-0.04 l 0.036,-0.14 q 0.005,-0.022 0.022,-0.09 0.014,-0.056 0.014,-0.073 0,-0.037 -0.023,-0.037 -0.042,0 -0.068,0.1 -0.007,0.028 -0.008,0.029 -0.005,0.005 -0.02,0.005 -0.024,0 -0.024,-0.014 0,-0.008 0.011,-0.0405 0.011,-0.0325 0.027,-0.0585 0.035,-0.057 0.087,-0.057 0.043,0 0.078,0.02 0.035,0.02 0.045,0.056 z"
             id="path69" />
        </g>
        <g
           transform="matrix(0.7,0,0,0.7,21.135143,14.656623)"
           id="g75">
          <path
             fill="#0099cc"
             stroke="none"
             paint-order="stroke fill markers"
             d="M 0.517,-0.222 0.486,0 H 0.057 v -0.018 q 0,-0.016 0.002,-0.0205 Q 0.061,-0.043 0.07,-0.052 l 0.201,-0.205 q 0.108,-0.11 0.108,-0.208 0,-0.06 -0.035,-0.1015 -0.035,-0.0415 -0.097,-0.0415 -0.061,0 -0.103,0.035 0.011,0.003 0.022,0.0085 0.011,0.0055 0.023,0.0225 0.012,0.017 0.012,0.041 0,0.035 -0.0225,0.0535 Q 0.156,-0.429 0.129,-0.429 0.104,-0.429 0.0805,-0.4465 0.057,-0.464 0.057,-0.503 0.057,-0.57 0.1185,-0.6125 0.18,-0.655 0.272,-0.655 q 0.107,0 0.176,0.052 0.069,0.052 0.069,0.137 0,0.035 -0.01,0.062 -0.01,0.027 -0.038,0.0565 Q 0.441,-0.318 0.417,-0.299 0.393,-0.28 0.339,-0.24 0.292,-0.206 0.195,-0.125 h 0.147 q 0.091,0 0.102,-0.006 0.013,-0.007 0.026,-0.091 z"
             id="path73" />
        </g>
      </g>
      <g
         transform="scale(35)"
         id="g87">
        <g
           transform="translate(16.514286,13.037978)"
           id="g81">
          <path
             fill="#ff9900"
             stroke="none"
             paint-order="stroke fill markers"
             d="m 0.759,-0.599 -0.407,0.59 Q 0.341,0.007 0.3335,0.012 0.326,0.017 0.306,0.017 0.294,0.017 0.289,0.016 0.284,0.015 0.2785,0.0085 0.273,0.002 0.271,-0.011 L 0.157,-0.619 Q 0.155,-0.632 0.1525,-0.6345 0.15,-0.637 0.142,-0.638 0.128,-0.639 0.103,-0.639 0.09,-0.639 0.0835,-0.6395 0.077,-0.64 0.0715,-0.6445 0.066,-0.649 0.066,-0.657 q 0,-0.013 0.006,-0.02 0.006,-0.007 0.0105,-0.008 0.0045,-0.001 0.0115,-0.001 0.01,0 0.0325,0.001 0.0225,0.001 0.0335,0.001 0.012,0 0.035,5e-4 0.023,5e-4 0.034,5e-4 0.012,0 0.0365,-5e-4 0.0245,-5e-4 0.0365,-5e-4 0.012,0 0.038,-0.001 0.026,-0.001 0.038,-0.001 0.022,0 0.022,0.018 0,0.02 -0.009,0.0245 -0.009,0.0045 -0.029,0.0045 -0.061,0 -0.061,0.008 0,0.008 0.002,0.014 l 0.088,0.468 0.33,-0.48 q -0.022,-0.01 -0.056,-0.01 -0.026,0 -0.026,-0.018 0,-0.029 0.027,-0.029 0.017,0 0.0545,0.0015 0.0375,0.0015 0.0555,0.0015 0.015,0 0.046,-0.0015 0.031,-0.0015 0.045,-0.0015 0.009,0 0.0135,0.006 0.0045,0.006 0.0045,0.012 0,0.029 -0.03,0.029 -0.033,0 -0.0525,0.0065 Q 0.783,-0.626 0.776,-0.6195 0.769,-0.613 0.759,-0.599 Z"
             id="path79" />
        </g>
        <g
           transform="matrix(0.7,0,0,0.7,17.448286,12.625086)"
           id="g85">
          <path
             fill="#ff9900"
             stroke="none"
             paint-order="stroke fill markers"
             d="m 0.28,-0.376 q 0.071,-0.076 0.165,-0.076 0.064,0 0.1065,0.0265 0.0425,0.0265 0.0425,0.0895 0,0.055 -0.062,0.214 -0.02,0.05 -0.02,0.073 0,0.01 0.003,0.015 0.003,0.005 0.006,0.0055 0.003,5e-4 0.008,5e-4 0.009,0 0.019,-0.004 0.01,-0.004 0.0255,-0.0145 Q 0.589,-0.057 0.6045,-0.0835 0.62,-0.11 0.632,-0.149 q 0.004,-0.013 0.023,-0.013 0.024,0 0.024,0.014 0,0.01 -0.01,0.0335 -0.01,0.0235 -0.028,0.052 Q 0.623,-0.034 0.5915,-0.013 0.56,0.008 0.523,0.008 0.478,0.008 0.444,-0.0165 0.41,-0.041 0.41,-0.082 q 0,-0.017 0.014,-0.051 0.063,-0.166 0.063,-0.224 0,-0.059 -0.05,-0.059 -0.053,0 -0.103,0.039 Q 0.312,-0.359 0.2925,-0.3325 0.273,-0.306 0.272,-0.299 0.271,-0.297 0.257,-0.241 0.243,-0.185 0.241,-0.18 0.227,-0.12 0.213,-0.068 0.209,-0.053 0.2055,-0.043 0.202,-0.033 0.1945,-0.0195 0.187,-0.006 0.1735,0.001 0.16,0.008 0.142,0.008 0.12,0.008 0.1075,-0.0055 0.095,-0.019 0.095,-0.036 q 0,-0.003 0.008,-0.04 l 0.036,-0.14 q 0.005,-0.022 0.022,-0.09 0.014,-0.056 0.014,-0.073 0,-0.037 -0.023,-0.037 -0.042,0 -0.068,0.1 -0.007,0.028 -0.008,0.029 -0.005,0.005 -0.02,0.005 -0.024,0 -0.024,-0.014 0,-0.008 0.011,-0.0405 0.011,-0.0325 0.027,-0.0585 0.035,-0.057 0.087,-0.057 0.043,0 0.078,0.02 0.035,0.02 0.045,0.056 z"
             id="path83" />
        </g>
      </g>
    </g>
  </g>
</svg>
