<?xml version="1.0" encoding="UTF-8" standalone="no"?>
<!-- Created with Inkscape (http://www.inkscape.org/) -->

<svg
   width="140mm"
   height="140mm"
   viewBox="0 0 140 140"
   version="1.1"
   id="svg5"
   xml:space="preserve"
   inkscape:version="1.2 (dc2aedaf03, 2022-05-15)"
   sodipodi:docname="logo.svg"
   xmlns:inkscape="http://www.inkscape.org/namespaces/inkscape"
   xmlns:sodipodi="http://sodipodi.sourceforge.net/DTD/sodipodi-0.dtd"
   xmlns="http://www.w3.org/2000/svg"
   xmlns:svg="http://www.w3.org/2000/svg"><sodipodi:namedview
     id="namedview7"
     pagecolor="#ffffff"
     bordercolor="#666666"
     borderopacity="1.0"
     inkscape:showpageshadow="2"
     inkscape:pageopacity="0.0"
     inkscape:pagecheckerboard="0"
     inkscape:deskcolor="#d1d1d1"
     inkscape:document-units="mm"
     showgrid="false"
     inkscape:zoom="2.1543544"
     inkscape:cx="315.87189"
     inkscape:cy="194.954"
     inkscape:window-width="1920"
     inkscape:window-height="1009"
     inkscape:window-x="-8"
     inkscape:window-y="-8"
     inkscape:window-maximized="1"
     inkscape:current-layer="layer3" /><defs
     id="defs2"><linearGradient
       id="linearGradient3850"
       inkscape:swatch="solid"><stop
         style="stop-color:#f0f0f0;stop-opacity:1;"
         offset="0"
         id="stop3848" /></linearGradient><pattern
       id="EMFhbasepattern"
       patternUnits="userSpaceOnUse"
       width="6"
       height="6"
       x="0"
       y="0" /></defs><g
     inkscape:label="background"
     inkscape:groupmode="layer"
     id="layer1"><rect
       style="fill:none;stroke:none;stroke-width:3.2"
       id="rect465"
       width="140"
       height="140"
       x="-5.3290705e-15"
       y="-5.3290705e-15" /></g><g
     inkscape:groupmode="layer"
     id="layer3"
     inkscape:label="draw 1"
     style="display:inline"><path
       style="display:inline;fill:#ffffff;fill-opacity:1;stroke:#000001;stroke-width:5.4;stroke-linecap:butt;stroke-linejoin:miter;stroke-dasharray:none;stroke-opacity:1"
       d="M 80.171233,67.184973 C 77.845191,44.603979 109.29073,44.897117 116.95801,52.975645 c 6.19129,6.523377 8.82425,19.41381 9.20205,28.668991 0.44154,10.816329 -2.6781,16.462268 -15.87235,18.544964 C 91.846208,103.10058 82.166211,86.552027 80.171233,67.184973 Z"
       id="path466"
       sodipodi:nodetypes="sssss" /><path
       style="display:inline;fill:#ffffff;fill-opacity:1;stroke:#000000;stroke-width:5.4;stroke-linecap:butt;stroke-linejoin:miter;stroke-dasharray:none;stroke-opacity:1"
       d="M 115.99533,82.575973 C 114.47494,60.758735 98.275521,48.925473 93.045961,40.648331 83.21194,25.083431 86.984339,18.02898 90.985906,14.287645 96.634887,9.0060308 77.174131,-5.7030363 66.768501,10.333554 56.849808,25.619703 54.688704,34.180698 59.462699,43.966098 51.832552,42.594005 28.177593,39.76473 19.471948,48.448032 c -8.916923,8.894037 0.610642,18.626951 6.929073,26.675389 -16.9721268,1.204085 -10.698275,23.433403 0.753212,32.700149 -9.012453,8.02408 -5.144217,15.55135 9.510954,22.85998 19.688158,9.81861 47.192889,8.61471 60.416903,-3.83338 11.50958,-10.83424 20.15461,-26.46086 18.91324,-44.274197 z"
       id="path471"
       sodipodi:nodetypes="sssscsccsss" /></g><g
     inkscape:groupmode="layer"
     id="layer4"
     inkscape:label="draw 2"
     style="display:inline"><path
       style="fill:none;stroke:#000000;stroke-width:3.2;stroke-linecap:butt;stroke-linejoin:miter;stroke-dasharray:none;stroke-opacity:1"
       d="m 29.017431,108.06785 c 0,0 4.31876,2.63196 12.246656,4.89897 7.760202,2.21906 15.651514,1.45375 15.651514,1.45375"
       id="path3950"
       sodipodi:nodetypes="csc" /><path
       style="fill:none;stroke:#000000;stroke-width:3.2;stroke-linecap:butt;stroke-linejoin:miter;stroke-dasharray:none;stroke-opacity:1"
       d="m 28.480872,76.189544 c 0,0 5.246845,5.788021 15.369059,7.818689 11.619257,2.330997 16.996145,-0.946536 16.996145,-0.946536"
       id="path3921"
       sodipodi:nodetypes="csc" /><path
       style="fill:none;stroke:#000000;stroke-width:3.2;stroke-linecap:butt;stroke-linejoin:miter;stroke-dasharray:none;stroke-opacity:1"
       d="m 60.434105,43.994812 c 0,0 1.232782,3.108994 3.515717,4.544728 2.622693,1.649407 5.844696,2.595147 5.844696,2.595147"
       id="path3981"
       sodipodi:nodetypes="csc" /><path
       style="fill:none;stroke:#000000;stroke-width:3.2;stroke-linecap:butt;stroke-linejoin:miter;stroke-dasharray:none;stroke-opacity:1"
       d="m 74.332347,53.787817 c 0,0 -4.103149,4.261409 -6.254329,5.043435 -3.094523,1.124964 -7.003553,1.285176 -7.003553,1.285176"
       id="path3983"
       sodipodi:nodetypes="csc" /><path
       style="fill:none;stroke:#000000;stroke-width:3.2;stroke-linecap:butt;stroke-linejoin:miter;stroke-dasharray:none;stroke-opacity:1"
       d="m 97.055774,78.266119 c -0.397426,-0.04333 -9.745493,-0.800374 -16.903507,4.628065 -3.885983,2.947022 -2.105551,6.623322 1.259211,6.730264 4.056535,0.128929 8.97198,-4.503976 8.97198,-4.503976"
       id="path3985"
       sodipodi:nodetypes="cssc" /><path
       style="fill:none;stroke:#000000;stroke-width:3.2;stroke-linecap:butt;stroke-linejoin:miter;stroke-dasharray:none;stroke-opacity:1"
       d="m 96.582858,95.484461 c -2.206239,-0.490153 -8.662046,0.423574 -15.811305,5.373989 -4.843756,3.354 -4.014668,7.29009 -0.667495,7.9952 3.315077,0.69835 8.289899,-2.87467 8.289899,-2.87467"
       id="path3987"
       sodipodi:nodetypes="cssc" /></g></svg>
